<?xml version="1.0" standalone="no"?>
<!DOCTYPE svg PUBLIC "-//W3C//DTD SVG 20010904//EN"
 "http://www.w3.org/TR/2001/REC-SVG-20010904/DTD/svg10.dtd">
<svg version="1.0" xmlns="http://www.w3.org/2000/svg"
 width="691.000000pt" height="691.000000pt" viewBox="0 0 691.000000 691.000000"
 preserveAspectRatio="xMidYMid meet">

<g transform="translate(0.000000,691.000000) scale(0.100000,-0.100000)"
fill="#000000" stroke="none">
<path d="M3220 5749 c-534 -54 -1052 -303 -1415 -680 -357 -371 -557 -785
-637 -1314 -8 -57 -12 -169 -12 -305 2 -183 6 -237 28 -362 84 -474 287 -872
619 -1214 205 -211 370 -330 652 -469 486 -239 1077 -288 1620 -134 180 51
316 110 550 237 141 76 366 259 493 401 313 348 502 741 583 1211 27 153 32
490 11 635 -80 529 -280 943 -637 1314 -119 123 -218 205 -380 312 -423 282
-972 419 -1475 368z m515 -195 c472 -64 906 -291 1250 -655 257 -272 446 -642
519 -1016 105 -538 7 -1069 -282 -1537 -71 -115 -229 -312 -318 -396 l-69 -65
-5 1285 c-4 1084 -7 1290 -19 1320 -54 132 -152 223 -273 256 -79 21 -2131 21
-2199 0 -156 -48 -267 -173 -289 -327 -6 -36 -10 -598 -10 -1291 0 -681 -4
-1228 -9 -1228 -13 0 -159 155 -231 245 -99 125 -185 262 -255 407 -457 953
-148 2083 728 2669 432 289 937 404 1462 333z m-1085 -1011 c0 -55 37 -112 94
-148 l49 -30 624 -3 c418 -2 637 1 664 8 75 20 148 111 149 183 l0 29 133 -4
c128 -3 136 -4 183 -33 37 -23 56 -44 77 -84 l27 -55 0 -1332 0 -1331 -77 -51
c-43 -28 -132 -78 -199 -111 -660 -329 -1451 -288 -2062 108 l-92 60 2 1328 3
1328 21 46 c23 50 74 97 126 116 18 6 88 12 156 12 l122 1 0 -37z"/>
<path d="M2943 3279 c-74 -28 -146 -97 -184 -175 -27 -55 -32 -77 -33 -142 -1
-67 3 -86 30 -142 87 -181 277 -250 457 -167 57 26 107 68 107 89 0 8 -20 33
-44 57 l-44 43 -59 -36 c-95 -58 -188 -46 -254 33 -41 50 -53 101 -39 162 20
82 107 150 191 149 60 -1 113 -42 329 -255 178 -176 228 -220 276 -242 113
-52 237 -40 336 33 218 158 186 471 -60 587 -58 27 -70 29 -145 25 -62 -3 -96
-11 -137 -30 -68 -33 -100 -60 -100 -85 0 -22 69 -93 90 -93 8 0 31 12 53 27
56 39 140 44 197 12 90 -51 125 -184 69 -262 -54 -77 -130 -109 -208 -88 -37
11 -76 44 -260 223 -119 116 -236 224 -260 240 -86 60 -209 75 -308 37z"/>
</g>
</svg>
